<svg xmlns="http://www.w3.org/2000/svg" xmlns:xlink="http://www.w3.org/1999/xlink" contentStyleType="text/css" height="888px" preserveAspectRatio="none" style="width:663px;height:888px;background:#FFFFFF;" version="1.1" viewBox="0 0 663 888" width="663px" zoomAndPan="magnify"><defs/><g><!--cluster Frontend--><g id="cluster_Frontend"><rect fill="none" height="97" rx="2.5" ry="2.5" style="stroke:#181818;stroke-width:1;" width="114" x="286" y="7"/><text fill="#000000" font-family="sans-serif" font-size="14" font-weight="bold" lengthAdjust="spacing" textLength="72.2285" x="306.8857" y="21.9951">Frontend</text></g><!--cluster Backend--><g id="cluster_Backend"><rect fill="none" height="527" rx="2.5" ry="2.5" style="stroke:#181818;stroke-width:1;" width="637" x="7" y="128"/><text fill="#000000" font-family="sans-serif" font-size="14" font-weight="bold" lengthAdjust="spacing" textLength="67.2109" x="291.8945" y="142.9951">Backend</text></g><!--cluster Routes--><g id="cluster_Routes"><rect fill="none" height="97" rx="2.5" ry="2.5" style="stroke:#181818;stroke-width:1;" width="508" x="71" y="171"/><text fill="#000000" font-family="sans-serif" font-size="14" font-weight="bold" lengthAdjust="spacing" textLength="54.8857" x="297.5571" y="185.9951">Routes</text></g><!--cluster Controllers--><g id="cluster_Controllers"><rect fill="none" height="97" rx="2.5" ry="2.5" style="stroke:#181818;stroke-width:1;" width="571" x="40" y="292"/><text fill="#000000" font-family="sans-serif" font-size="14" font-weight="bold" lengthAdjust="spacing" textLength="87.4043" x="281.7979" y="306.9951">Controllers</text></g><!--cluster Services--><g id="cluster_Services"><rect fill="none" height="97" rx="2.5" ry="2.5" style="stroke:#181818;stroke-width:1;" width="518" x="67" y="413"/><text fill="#000000" font-family="sans-serif" font-size="14" font-weight="bold" lengthAdjust="spacing" textLength="66.5342" x="292.7329" y="427.9951">Services</text></g><!--cluster Repositories--><g id="cluster_Repositories"><rect fill="none" height="97" rx="2.5" ry="2.5" style="stroke:#181818;stroke-width:1;" width="589" x="31" y="534"/><text fill="#000000" font-family="sans-serif" font-size="14" font-weight="bold" lengthAdjust="spacing" textLength="98.8887" x="276.0557" y="548.9951">Repositories</text></g><!--cluster Database--><g id="cluster_Database"><rect fill="none" height="203" rx="2.5" ry="2.5" style="stroke:#181818;stroke-width:1;" width="391" x="266" y="679"/><text fill="#000000" font-family="sans-serif" font-size="14" font-weight="bold" lengthAdjust="spacing" textLength="74.5049" x="424.2476" y="693.9951">Database</text></g><!--entity Client--><g id="elem_Client"><rect fill="#F1F1F1" height="46.2969" rx="2.5" ry="2.5" style="stroke:#181818;stroke-width:0.5;" width="80.5303" x="302.5" y="42"/><rect fill="#F1F1F1" height="10" style="stroke:#181818;stroke-width:0.5;" width="15" x="363.0303" y="47"/><rect fill="#F1F1F1" height="2" style="stroke:#181818;stroke-width:0.5;" width="4" x="361.0303" y="49"/><rect fill="#F1F1F1" height="2" style="stroke:#181818;stroke-width:0.5;" width="4" x="361.0303" y="53"/><text fill="#000000" font-family="sans-serif" font-size="14" lengthAdjust="spacing" textLength="40.5303" x="317.5" y="74.9951">Client</text></g><!--entity UserRoutes--><g id="elem_UserRoutes"><rect fill="#F1F1F1" height="46.2969" rx="2.5" ry="2.5" style="stroke:#181818;stroke-width:0.5;" width="120.4727" x="443" y="206"/><rect fill="#F1F1F1" height="10" style="stroke:#181818;stroke-width:0.5;" width="15" x="543.4727" y="211"/><rect fill="#F1F1F1" height="2" style="stroke:#181818;stroke-width:0.5;" width="4" x="541.4727" y="213"/><rect fill="#F1F1F1" height="2" style="stroke:#181818;stroke-width:0.5;" width="4" x="541.4727" y="217"/><text fill="#000000" font-family="sans-serif" font-size="14" lengthAdjust="spacing" textLength="80.4727" x="458" y="238.9951">UserRoutes</text></g><!--entity GameRoutes--><g id="elem_GameRoutes"><rect fill="#F1F1F1" height="46.2969" rx="2.5" ry="2.5" style="stroke:#181818;stroke-width:0.5;" width="130.2412" x="278" y="206"/><rect fill="#F1F1F1" height="10" style="stroke:#181818;stroke-width:0.5;" width="15" x="388.2412" y="211"/><rect fill="#F1F1F1" height="2" style="stroke:#181818;stroke-width:0.5;" width="4" x="386.2412" y="213"/><rect fill="#F1F1F1" height="2" style="stroke:#181818;stroke-width:0.5;" width="4" x="386.2412" y="217"/><text fill="#000000" font-family="sans-serif" font-size="14" lengthAdjust="spacing" textLength="90.2412" x="293" y="238.9951">GameRoutes</text></g><!--entity CompanyRoutes--><g id="elem_CompanyRoutes"><rect fill="#F1F1F1" height="46.2969" rx="2.5" ry="2.5" style="stroke:#181818;stroke-width:0.5;" width="155.165" x="87.5" y="206"/><rect fill="#F1F1F1" height="10" style="stroke:#181818;stroke-width:0.5;" width="15" x="222.665" y="211"/><rect fill="#F1F1F1" height="2" style="stroke:#181818;stroke-width:0.5;" width="4" x="220.665" y="213"/><rect fill="#F1F1F1" height="2" style="stroke:#181818;stroke-width:0.5;" width="4" x="220.665" y="217"/><text fill="#000000" font-family="sans-serif" font-size="14" lengthAdjust="spacing" textLength="115.165" x="102.5" y="238.9951">CompanyRoutes</text></g><!--entity UserController--><g id="elem_UserController"><rect fill="#F1F1F1" height="46.2969" rx="2.5" ry="2.5" style="stroke:#181818;stroke-width:0.5;" width="141.083" x="453.5" y="327"/><rect fill="#F1F1F1" height="10" style="stroke:#181818;stroke-width:0.5;" width="15" x="574.583" y="332"/><rect fill="#F1F1F1" height="2" style="stroke:#181818;stroke-width:0.5;" width="4" x="572.583" y="334"/><rect fill="#F1F1F1" height="2" style="stroke:#181818;stroke-width:0.5;" width="4" x="572.583" y="338"/><text fill="#000000" font-family="sans-serif" font-size="14" lengthAdjust="spacing" textLength="101.083" x="468.5" y="359.9951">UserController</text></g><!--entity GameController--><g id="elem_GameController"><rect fill="#F1F1F1" height="46.2969" rx="2.5" ry="2.5" style="stroke:#181818;stroke-width:0.5;" width="150.8516" x="267.5" y="327"/><rect fill="#F1F1F1" height="10" style="stroke:#181818;stroke-width:0.5;" width="15" x="398.3516" y="332"/><rect fill="#F1F1F1" height="2" style="stroke:#181818;stroke-width:0.5;" width="4" x="396.3516" y="334"/><rect fill="#F1F1F1" height="2" style="stroke:#181818;stroke-width:0.5;" width="4" x="396.3516" y="338"/><text fill="#000000" font-family="sans-serif" font-size="14" lengthAdjust="spacing" textLength="110.8516" x="282.5" y="359.9951">GameController</text></g><!--entity CompanyController--><g id="elem_CompanyController"><rect fill="#F1F1F1" height="46.2969" rx="2.5" ry="2.5" style="stroke:#181818;stroke-width:0.5;" width="175.7754" x="56" y="327"/><rect fill="#F1F1F1" height="10" style="stroke:#181818;stroke-width:0.5;" width="15" x="211.7754" y="332"/><rect fill="#F1F1F1" height="2" style="stroke:#181818;stroke-width:0.5;" width="4" x="209.7754" y="334"/><rect fill="#F1F1F1" height="2" style="stroke:#181818;stroke-width:0.5;" width="4" x="209.7754" y="338"/><text fill="#000000" font-family="sans-serif" font-size="14" lengthAdjust="spacing" textLength="135.7754" x="71" y="359.9951">CompanyController</text></g><!--entity UserService--><g id="elem_UserService"><rect fill="#F1F1F1" height="46.2969" rx="2.5" ry="2.5" style="stroke:#181818;stroke-width:0.5;" width="123.6514" x="445" y="448"/><rect fill="#F1F1F1" height="10" style="stroke:#181818;stroke-width:0.5;" width="15" x="548.6514" y="453"/><rect fill="#F1F1F1" height="2" style="stroke:#181818;stroke-width:0.5;" width="4" x="546.6514" y="455"/><rect fill="#F1F1F1" height="2" style="stroke:#181818;stroke-width:0.5;" width="4" x="546.6514" y="459"/><text fill="#000000" font-family="sans-serif" font-size="14" lengthAdjust="spacing" textLength="83.6514" x="460" y="480.9951">UserService</text></g><!--entity GameService--><g id="elem_GameService"><rect fill="#F1F1F1" height="46.2969" rx="2.5" ry="2.5" style="stroke:#181818;stroke-width:0.5;" width="133.4199" x="276.5" y="448"/><rect fill="#F1F1F1" height="10" style="stroke:#181818;stroke-width:0.5;" width="15" x="389.9199" y="453"/><rect fill="#F1F1F1" height="2" style="stroke:#181818;stroke-width:0.5;" width="4" x="387.9199" y="455"/><rect fill="#F1F1F1" height="2" style="stroke:#181818;stroke-width:0.5;" width="4" x="387.9199" y="459"/><text fill="#000000" font-family="sans-serif" font-size="14" lengthAdjust="spacing" textLength="93.4199" x="291.5" y="480.9951">GameService</text></g><!--entity CompanyService--><g id="elem_CompanyService"><rect fill="#F1F1F1" height="46.2969" rx="2.5" ry="2.5" style="stroke:#181818;stroke-width:0.5;" width="158.3438" x="83" y="448"/><rect fill="#F1F1F1" height="10" style="stroke:#181818;stroke-width:0.5;" width="15" x="221.3438" y="453"/><rect fill="#F1F1F1" height="2" style="stroke:#181818;stroke-width:0.5;" width="4" x="219.3438" y="455"/><rect fill="#F1F1F1" height="2" style="stroke:#181818;stroke-width:0.5;" width="4" x="219.3438" y="459"/><text fill="#000000" font-family="sans-serif" font-size="14" lengthAdjust="spacing" textLength="118.3438" x="98" y="480.9951">CompanyService</text></g><!--entity UserRepository--><g id="elem_UserRepository"><rect fill="#F1F1F1" height="46.2969" rx="2.5" ry="2.5" style="stroke:#181818;stroke-width:0.5;" width="146.9824" x="456.5" y="569"/><rect fill="#F1F1F1" height="10" style="stroke:#181818;stroke-width:0.5;" width="15" x="583.4824" y="574"/><rect fill="#F1F1F1" height="2" style="stroke:#181818;stroke-width:0.5;" width="4" x="581.4824" y="576"/><rect fill="#F1F1F1" height="2" style="stroke:#181818;stroke-width:0.5;" width="4" x="581.4824" y="580"/><text fill="#000000" font-family="sans-serif" font-size="14" lengthAdjust="spacing" textLength="106.9824" x="471.5" y="601.9951">UserRepository</text></g><!--entity GameRepository--><g id="elem_GameRepository"><rect fill="#F1F1F1" height="46.2969" rx="2.5" ry="2.5" style="stroke:#181818;stroke-width:0.5;" width="156.751" x="264.5" y="569"/><rect fill="#F1F1F1" height="10" style="stroke:#181818;stroke-width:0.5;" width="15" x="401.251" y="574"/><rect fill="#F1F1F1" height="2" style="stroke:#181818;stroke-width:0.5;" width="4" x="399.251" y="576"/><rect fill="#F1F1F1" height="2" style="stroke:#181818;stroke-width:0.5;" width="4" x="399.251" y="580"/><text fill="#000000" font-family="sans-serif" font-size="14" lengthAdjust="spacing" textLength="116.751" x="279.5" y="601.9951">GameRepository</text></g><!--entity CompanyRepository--><g id="elem_CompanyRepository"><rect fill="#F1F1F1" height="46.2969" rx="2.5" ry="2.5" style="stroke:#181818;stroke-width:0.5;" width="181.6748" x="47" y="569"/><rect fill="#F1F1F1" height="10" style="stroke:#181818;stroke-width:0.5;" width="15" x="208.6748" y="574"/><rect fill="#F1F1F1" height="2" style="stroke:#181818;stroke-width:0.5;" width="4" x="206.6748" y="576"/><rect fill="#F1F1F1" height="2" style="stroke:#181818;stroke-width:0.5;" width="4" x="206.6748" y="580"/><text fill="#000000" font-family="sans-serif" font-size="14" lengthAdjust="spacing" textLength="141.6748" x="62" y="601.9951">CompanyRepository</text></g><!--entity PostgreSQL--><g id="elem_PostgreSQL"><rect fill="#F1F1F1" height="46.2969" rx="2.5" ry="2.5" style="stroke:#181818;stroke-width:0.5;" width="120.7529" x="282.5" y="714"/><rect fill="#F1F1F1" height="10" style="stroke:#181818;stroke-width:0.5;" width="15" x="383.2529" y="719"/><rect fill="#F1F1F1" height="2" style="stroke:#181818;stroke-width:0.5;" width="4" x="381.2529" y="721"/><rect fill="#F1F1F1" height="2" style="stroke:#181818;stroke-width:0.5;" width="4" x="381.2529" y="725"/><text fill="#000000" font-family="sans-serif" font-size="14" lengthAdjust="spacing" textLength="80.7529" x="297.5" y="746.9951">PostgreSQL</text></g><!--entity Users--><g id="elem_Users"><rect fill="#F1F1F1" height="46.2969" rx="2.5" ry="2.5" style="stroke:#181818;stroke-width:0.5;" width="79.2041" x="438.5" y="714"/><rect fill="#F1F1F1" height="10" style="stroke:#181818;stroke-width:0.5;" width="15" x="497.7041" y="719"/><rect fill="#F1F1F1" height="2" style="stroke:#181818;stroke-width:0.5;" width="4" x="495.7041" y="721"/><rect fill="#F1F1F1" height="2" style="stroke:#181818;stroke-width:0.5;" width="4" x="495.7041" y="725"/><text fill="#000000" font-family="sans-serif" font-size="14" lengthAdjust="spacing" textLength="39.2041" x="453.5" y="746.9951">Users</text></g><!--entity Games--><g id="elem_Games"><rect fill="#F1F1F1" height="46.2969" rx="2.5" ry="2.5" style="stroke:#181818;stroke-width:0.5;" width="88.9727" x="552.5" y="714"/><rect fill="#F1F1F1" height="10" style="stroke:#181818;stroke-width:0.5;" width="15" x="621.4727" y="719"/><rect fill="#F1F1F1" height="2" style="stroke:#181818;stroke-width:0.5;" width="4" x="619.4727" y="721"/><rect fill="#F1F1F1" height="2" style="stroke:#181818;stroke-width:0.5;" width="4" x="619.4727" y="725"/><text fill="#000000" font-family="sans-serif" font-size="14" lengthAdjust="spacing" textLength="48.9727" x="567.5" y="746.9951">Games</text></g><!--entity Companies--><g id="elem_Companies"><rect fill="#F1F1F1" height="46.2969" rx="2.5" ry="2.5" style="stroke:#181818;stroke-width:0.5;" width="118.1143" x="390" y="820"/><rect fill="#F1F1F1" height="10" style="stroke:#181818;stroke-width:0.5;" width="15" x="488.1143" y="825"/><rect fill="#F1F1F1" height="2" style="stroke:#181818;stroke-width:0.5;" width="4" x="486.1143" y="827"/><rect fill="#F1F1F1" height="2" style="stroke:#181818;stroke-width:0.5;" width="4" x="486.1143" y="831"/><text fill="#000000" font-family="sans-serif" font-size="14" lengthAdjust="spacing" textLength="78.1143" x="405" y="852.9951">Companies</text></g><!--entity Reviews--><g id="elem_Reviews"><rect fill="#F1F1F1" height="46.2969" rx="2.5" ry="2.5" style="stroke:#181818;stroke-width:0.5;" width="97.873" x="543" y="820"/><rect fill="#F1F1F1" height="10" style="stroke:#181818;stroke-width:0.5;" width="15" x="620.873" y="825"/><rect fill="#F1F1F1" height="2" style="stroke:#181818;stroke-width:0.5;" width="4" x="618.873" y="827"/><rect fill="#F1F1F1" height="2" style="stroke:#181818;stroke-width:0.5;" width="4" x="618.873" y="831"/><text fill="#000000" font-family="sans-serif" font-size="14" lengthAdjust="spacing" textLength="57.873" x="558" y="852.9951">Reviews</text></g><!--link Client to UserRoutes--><g id="link_Client_UserRoutes"><path d="M383.65,88.2 C397.9,97.05 413.46,107.99 426,120 C453.1,145.97 473.8587,177.4838 487.5787,200.7138 " fill="none" id="Client-to-UserRoutes" style="stroke:#181818;stroke-width:1;"/><polygon fill="#181818" points="490.63,205.88,489.4973,196.0965,488.0873,201.5748,482.609,200.1648,490.63,205.88" style="stroke:#181818;stroke-width:1;"/></g><!--link Client to GameRoutes--><g id="link_Client_GameRoutes"><path d="M343,88.19 C343,119.12 343,168.89 343,199.82 " fill="none" id="Client-to-GameRoutes" style="stroke:#181818;stroke-width:1;"/><polygon fill="#181818" points="343,205.82,347,196.82,343,200.82,339,196.82,343,205.82" style="stroke:#181818;stroke-width:1;"/></g><!--link Client to CompanyRoutes--><g id="link_Client_CompanyRoutes"><path d="M304.78,88.24 C290.45,97.31 274.41,108.4 261,120 C230.27,146.59 203.7015,178.0657 185.6015,201.0557 " fill="none" id="Client-to-CompanyRoutes" style="stroke:#181818;stroke-width:1;"/><polygon fill="#181818" points="181.89,205.77,190.6002,201.1729,184.983,201.8414,184.3145,196.2242,181.89,205.77" style="stroke:#181818;stroke-width:1;"/></g><!--link UserRoutes to UserController--><g id="link_UserRoutes_UserController"><path d="M506.9,252.1 C510.65,273.34 515.2357,299.3716 519.0057,320.7016 " fill="none" id="UserRoutes-to-UserController" style="stroke:#181818;stroke-width:1;"/><polygon fill="#181818" points="520.05,326.61,522.4225,317.0512,519.1798,321.6863,514.5446,318.4436,520.05,326.61" style="stroke:#181818;stroke-width:1;"/></g><!--link GameRoutes to GameController--><g id="link_GameRoutes_GameController"><path d="M343,252.1 C343,273.34 343,299.28 343,320.61 " fill="none" id="GameRoutes-to-GameController" style="stroke:#181818;stroke-width:1;"/><polygon fill="#181818" points="343,326.61,347,317.61,343,321.61,339,317.61,343,326.61" style="stroke:#181818;stroke-width:1;"/></g><!--link CompanyRoutes to CompanyController--><g id="link_CompanyRoutes_CompanyController"><path d="M161.1,252.1 C157.35,273.34 152.7643,299.3716 148.9943,320.7016 " fill="none" id="CompanyRoutes-to-CompanyController" style="stroke:#181818;stroke-width:1;"/><polygon fill="#181818" points="147.95,326.61,153.4554,318.4436,148.8202,321.6863,145.5775,317.0512,147.95,326.61" style="stroke:#181818;stroke-width:1;"/></g><!--link UserController to UserService--><g id="link_UserController_UserService"><path d="M520.84,373.1 C517.81,394.34 514.0993,420.3404 511.0493,441.6704 " fill="none" id="UserController-to-UserService" style="stroke:#181818;stroke-width:1;"/><polygon fill="#181818" points="510.2,447.61,515.4337,439.2668,510.9078,442.6603,507.5142,438.1344,510.2,447.61" style="stroke:#181818;stroke-width:1;"/></g><!--link GameController to GameService--><g id="link_GameController_GameService"><path d="M343,373.1 C343,394.34 343,420.28 343,441.61 " fill="none" id="GameController-to-GameService" style="stroke:#181818;stroke-width:1;"/><polygon fill="#181818" points="343,447.61,347,438.61,343,442.61,339,438.61,343,447.61" style="stroke:#181818;stroke-width:1;"/></g><!--link CompanyController to CompanyService--><g id="link_CompanyController_CompanyService"><path d="M147.34,373.1 C150.56,394.34 154.4944,420.3472 157.7144,441.6772 " fill="none" id="CompanyController-to-CompanyService" style="stroke:#181818;stroke-width:1;"/><polygon fill="#181818" points="158.61,447.61,161.2218,438.1138,157.8637,442.666,153.3114,439.3079,158.61,447.61" style="stroke:#181818;stroke-width:1;"/></g><!--link UserService to UserRepository--><g id="link_UserService_UserRepository"><path d="M511.27,494.1 C515.38,515.34 520.4121,541.3889 524.5321,562.7189 " fill="none" id="UserService-to-UserRepository" style="stroke:#181818;stroke-width:1;"/><polygon fill="#181818" points="525.67,568.61,527.8906,559.0147,524.7218,563.7007,520.0357,560.5319,525.67,568.61" style="stroke:#181818;stroke-width:1;"/></g><!--link GameService to GameRepository--><g id="link_GameService_GameRepository"><path d="M343,494.1 C343,515.34 343,541.28 343,562.61 " fill="none" id="GameService-to-GameRepository" style="stroke:#181818;stroke-width:1;"/><polygon fill="#181818" points="343,568.61,347,559.61,343,563.61,339,559.61,343,568.61" style="stroke:#181818;stroke-width:1;"/></g><!--link CompanyService to CompanyRepository--><g id="link_CompanyService_CompanyRepository"><path d="M157.54,494.1 C153.26,515.34 148.0057,541.3983 143.7057,562.7283 " fill="none" id="CompanyService-to-CompanyRepository" style="stroke:#181818;stroke-width:1;"/><polygon fill="#181818" points="142.52,568.61,148.2197,560.578,143.5081,563.7086,140.3774,558.997,142.52,568.61" style="stroke:#181818;stroke-width:1;"/></g><!--link UserRepository to PostgreSQL--><g id="link_UserRepository_PostgreSQL"><path d="M504.5,615.26 C486.88,629.97 462.46,649.03 439,663 C431.48,667.48 428.43,666.38 421,671 C401.09,683.38 385.2591,696.4034 370.3691,709.9434 " fill="none" id="UserRepository-to-PostgreSQL" style="stroke:#181818;stroke-width:1;"/><polygon fill="#181818" points="365.93,713.98,375.2797,710.8845,369.6293,710.6161,369.8976,704.9657,365.93,713.98" style="stroke:#181818;stroke-width:1;"/></g><!--link GameRepository to PostgreSQL--><g id="link_GameRepository_PostgreSQL"><path d="M343,615.03 C343,641.82 343,680.8 343,707.71 " fill="none" id="GameRepository-to-PostgreSQL" style="stroke:#181818;stroke-width:1;"/><polygon fill="#181818" points="343,713.71,347,704.71,343,708.71,339,704.71,343,713.71" style="stroke:#181818;stroke-width:1;"/></g><!--link CompanyRepository to PostgreSQL--><g id="link_CompanyRepository_PostgreSQL"><path d="M169.58,615.03 C208.11,641.9 267.9187,683.6276 306.4587,710.5076 " fill="none" id="CompanyRepository-to-PostgreSQL" style="stroke:#181818;stroke-width:1;"/><polygon fill="#181818" points="311.38,713.94,306.2864,705.5106,307.2789,711.0797,301.7099,712.0723,311.38,713.94" style="stroke:#181818;stroke-width:1;"/></g><!--SRC=[RP71RiCW44JlV0NAFR-GGrsrbnnQMprLEMpSbOM2mGAQo8hoxtKCDhkuDpoCtw0PVr5c00Uz7A2zG8TD63LAXsq0qsaK8kboz-Qi2MX-Tl8kfFokj48JJk91B2_JONMiQcr_0_eeJZz-UNHHEaNX7NfaGcNx0SoOjIc3yAhf7SvgZOv3iqx06p71kSu36dHNrHPFJY91SoLnYSYXDGxMgs2TAhjOBaRQHoakdJ3zmTf_XG1dy9W6-h0-T0wRp-FJEaVDPSxyU8fGbRvgl2gy-NdIPLwvtn_uPFo6RiTlYX45XMGgdO72CfqvE9G5KPyesJbmtQU4vyHisQ9Pv6eK34qw8sinD2cFMWekBv8OHKcFJhfu2V_7iGLlJ7y0]--></g></svg>