<svg xmlns="http://www.w3.org/2000/svg" xmlns:xlink="http://www.w3.org/1999/xlink" contentStyleType="text/css" height="572px" preserveAspectRatio="none" style="width:460px;height:572px;background:#FFFFFF;" version="1.1" viewBox="0 0 460 572" width="460px" zoomAndPan="magnify"><defs/><g><!--class User--><g id="elem_User"><rect codeLine="1" fill="#F1F1F1" height="145.7813" id="User" rx="2.5" ry="2.5" style="stroke:#181818;stroke-width:0.5;" width="214.0498" x="7" y="197"/><ellipse cx="93.8198" cy="213" fill="#ADD1B2" rx="11" ry="11" style="stroke:#181818;stroke-width:1;"/><path d="M97.9292,219 L90.2104,219 L90.2104,206.6094 L97.9292,206.6094 L97.9292,208.7656 L92.6636,208.7656 L92.6636,211.4375 L97.4292,211.4375 L97.4292,213.5938 L92.6636,213.5938 L92.6636,216.8438 L97.9292,216.8438 L97.9292,219 Z " fill="#000000"/><text fill="#000000" font-family="sans-serif" font-size="14" lengthAdjust="spacing" textLength="31.9102" x="114.3198" y="217.8467">User</text><line style="stroke:#181818;stroke-width:0.5;" x1="8" x2="220.0498" y1="229" y2="229"/><ellipse cx="18" cy="242.6484" fill="#000000" rx="3" ry="3" style="stroke:#000000;stroke-width:1;"/><text fill="#000000" font-family="sans-serif" font-size="14" lengthAdjust="spacing" textLength="61.7969" x="27" y="245.9951">id : UUID</text><line style="stroke:#181818;stroke-width:1;" x1="8" x2="220.0498" y1="253.2969" y2="253.2969"/><text fill="#000000" font-family="sans-serif" font-size="14" lengthAdjust="spacing" textLength="189.9912" x="13" y="270.292">username : VARCHAR(255)</text><text fill="#000000" font-family="sans-serif" font-size="14" lengthAdjust="spacing" textLength="158.3613" x="13" y="286.5889">email : VARCHAR(255)</text><text fill="#000000" font-family="sans-serif" font-size="14" lengthAdjust="spacing" textLength="115.8691" x="13" y="302.8857">password : TEXT</text><text fill="#000000" font-family="sans-serif" font-size="14" lengthAdjust="spacing" textLength="202.0498" x="13" y="319.1826">role : ENUM('USER', 'ADMIN')</text><text fill="#000000" font-family="sans-serif" font-size="14" lengthAdjust="spacing" textLength="169.4629" x="13" y="335.4795">created_at : TIMESTAMP</text></g><!--class Review--><g id="elem_Review"><rect codeLine="11" fill="#F1F1F1" height="145.7813" id="Review" rx="2.5" ry="2.5" style="stroke:#181818;stroke-width:0.5;" width="181.4629" x="55.5" y="420"/><ellipse cx="116.6919" cy="436" fill="#ADD1B2" rx="11" ry="11" style="stroke:#181818;stroke-width:1;"/><path d="M120.8013,442 L113.0825,442 L113.0825,429.6094 L120.8013,429.6094 L120.8013,431.7656 L115.5356,431.7656 L115.5356,434.4375 L120.3013,434.4375 L120.3013,436.5938 L115.5356,436.5938 L115.5356,439.8438 L120.8013,439.8438 L120.8013,442 Z " fill="#000000"/><text fill="#000000" font-family="sans-serif" font-size="14" lengthAdjust="spacing" textLength="50.5791" x="137.1919" y="440.8467">Review</text><line style="stroke:#181818;stroke-width:0.5;" x1="56.5" x2="235.9629" y1="452" y2="452"/><ellipse cx="66.5" cy="465.6484" fill="#000000" rx="3" ry="3" style="stroke:#000000;stroke-width:1;"/><text fill="#000000" font-family="sans-serif" font-size="14" lengthAdjust="spacing" textLength="61.7969" x="75.5" y="468.9951">id : UUID</text><line style="stroke:#181818;stroke-width:1;" x1="56.5" x2="235.9629" y1="476.2969" y2="476.2969"/><text fill="#000000" font-family="sans-serif" font-size="14" lengthAdjust="spacing" textLength="92.5723" x="61.5" y="493.292">userId : UUID</text><text fill="#000000" font-family="sans-serif" font-size="14" lengthAdjust="spacing" textLength="101.7529" x="61.5" y="509.5889">gameId : UUID</text><text fill="#000000" font-family="sans-serif" font-size="14" lengthAdjust="spacing" textLength="116.5117" x="61.5" y="525.8857">rating : INTEGER</text><text fill="#000000" font-family="sans-serif" font-size="14" lengthAdjust="spacing" textLength="95.7646" x="61.5" y="542.1826">review : TEXT</text><text fill="#000000" font-family="sans-serif" font-size="14" lengthAdjust="spacing" textLength="169.4629" x="61.5" y="558.4795">created_at : TIMESTAMP</text></g><!--class Game--><g id="elem_Game"><rect codeLine="21" fill="#F1F1F1" height="145.7813" id="Game" rx="2.5" ry="2.5" style="stroke:#181818;stroke-width:0.5;" width="196.6865" x="256.5" y="197"/><ellipse cx="329.7539" cy="213" fill="#ADD1B2" rx="11" ry="11" style="stroke:#181818;stroke-width:1;"/><path d="M333.8633,219 L326.1445,219 L326.1445,206.6094 L333.8633,206.6094 L333.8633,208.7656 L328.5977,208.7656 L328.5977,211.4375 L333.3633,211.4375 L333.3633,213.5938 L328.5977,213.5938 L328.5977,216.8438 L333.8633,216.8438 L333.8633,219 Z " fill="#000000"/><text fill="#000000" font-family="sans-serif" font-size="14" lengthAdjust="spacing" textLength="41.6787" x="350.2539" y="217.8467">Game</text><line style="stroke:#181818;stroke-width:0.5;" x1="257.5" x2="452.1865" y1="229" y2="229"/><ellipse cx="267.5" cy="242.6484" fill="#000000" rx="3" ry="3" style="stroke:#000000;stroke-width:1;"/><text fill="#000000" font-family="sans-serif" font-size="14" lengthAdjust="spacing" textLength="61.7969" x="276.5" y="245.9951">id : UUID</text><line style="stroke:#181818;stroke-width:1;" x1="257.5" x2="452.1865" y1="253.2969" y2="253.2969"/><text fill="#000000" font-family="sans-serif" font-size="14" lengthAdjust="spacing" textLength="147.123" x="262.5" y="270.292">title : VARCHAR(255)</text><text fill="#000000" font-family="sans-serif" font-size="14" lengthAdjust="spacing" textLength="126.998" x="262.5" y="286.5889">description : TEXT</text><text fill="#000000" font-family="sans-serif" font-size="14" lengthAdjust="spacing" textLength="184.6865" x="262.5" y="302.8857">release_date : TIMESTAMP</text><text fill="#000000" font-family="sans-serif" font-size="14" lengthAdjust="spacing" textLength="169.4629" x="262.5" y="319.1826">created_at : TIMESTAMP</text><text fill="#000000" font-family="sans-serif" font-size="14" lengthAdjust="spacing" textLength="126.5605" x="262.5" y="335.4795">companyId : UUID</text></g><!--class Company--><g id="elem_Company"><rect codeLine="31" fill="#F1F1F1" height="113.1875" id="Company" rx="2.5" ry="2.5" style="stroke:#181818;stroke-width:0.5;" width="185.291" x="262.5" y="7"/><ellipse cx="317.5942" cy="23" fill="#ADD1B2" rx="11" ry="11" style="stroke:#181818;stroke-width:1;"/><path d="M321.7036,29 L313.9849,29 L313.9849,16.6094 L321.7036,16.6094 L321.7036,18.7656 L316.438,18.7656 L316.438,21.4375 L321.2036,21.4375 L321.2036,23.5938 L316.438,23.5938 L316.438,26.8438 L321.7036,26.8438 L321.7036,29 Z " fill="#000000"/><text fill="#000000" font-family="sans-serif" font-size="14" lengthAdjust="spacing" textLength="66.6025" x="338.0942" y="27.8467">Company</text><line style="stroke:#181818;stroke-width:0.5;" x1="263.5" x2="446.791" y1="39" y2="39"/><ellipse cx="273.5" cy="52.6484" fill="#000000" rx="3" ry="3" style="stroke:#000000;stroke-width:1;"/><text fill="#000000" font-family="sans-serif" font-size="14" lengthAdjust="spacing" textLength="61.7969" x="282.5" y="55.9951">id : UUID</text><line style="stroke:#181818;stroke-width:1;" x1="263.5" x2="446.791" y1="63.2969" y2="63.2969"/><text fill="#000000" font-family="sans-serif" font-size="14" lengthAdjust="spacing" textLength="159.4551" x="268.5" y="80.292">name : VARCHAR(255)</text><text fill="#000000" font-family="sans-serif" font-size="14" lengthAdjust="spacing" textLength="173.291" x="268.5" y="96.5889">country : VARCHAR(255)</text><text fill="#000000" font-family="sans-serif" font-size="14" lengthAdjust="spacing" textLength="169.4629" x="268.5" y="112.8857">created_at : TIMESTAMP</text></g><!--link User to Review--><g id="link_User_Review"><path codeLine="39" d="M125.5776,350.9773 C129.1376,375.5373 129.3899,377.2659 132.9499,401.8459 " fill="none" id="User-Review" style="stroke:#181818;stroke-width:1;"/><line style="stroke:#181818;stroke-width:1;" x1="121.0452" x2="128.9624" y1="347.5924" y2="346.4448"/><line style="stroke:#181818;stroke-width:1;" x1="121.4755" x2="129.3928" y1="350.5614" y2="349.4138"/><line style="stroke:#181818;stroke-width:1;" x1="125.5776" x2="124.43" y1="350.9773" y2="343.06"/><line style="stroke:#181818;stroke-width:1;" x1="134.3833" x2="141.468" y1="411.7426" y2="418.8"/><line style="stroke:#181818;stroke-width:1;" x1="134.3833" x2="129.592" y1="411.7426" y2="420.52"/><line style="stroke:#181818;stroke-width:1;" x1="134.3833" x2="135.53" y1="411.7426" y2="419.66"/><ellipse cx="133.5233" cy="405.8046" fill="none" rx="4" ry="4" style="stroke:#181818;stroke-width:1;"/><text fill="#000000" font-family="sans-serif" font-size="13" lengthAdjust="spacing" textLength="22.9785" x="132" y="386.0669">has</text></g><!--link Game to Review--><g id="link_Game_Review"><path codeLine="40" d="M281.354,348.8732 C258.134,373.4332 250.0292,382.0032 226.7792,406.5832 " fill="none" id="Game-Review" style="stroke:#181818;stroke-width:1;"/><line style="stroke:#181818;stroke-width:1;" x1="281.1954" x2="287.0086" y1="343.2186" y2="348.7146"/><line style="stroke:#181818;stroke-width:1;" x1="279.1344" x2="284.9476" y1="345.3985" y2="350.8946"/><line style="stroke:#181818;stroke-width:1;" x1="281.354" x2="286.85" y1="348.8732" y2="343.06"/><line style="stroke:#181818;stroke-width:1;" x1="219.9074" x2="218.7689" y1="413.8481" y2="423.7831"/><line style="stroke:#181818;stroke-width:1;" x1="219.9074" x2="210.0511" y1="413.8481" y2="415.5369"/><line style="stroke:#181818;stroke-width:1;" x1="219.9074" x2="214.41" y1="413.8481" y2="419.66"/><ellipse cx="224.0305" cy="409.4892" fill="none" rx="4" ry="4" style="stroke:#181818;stroke-width:1;"/><text fill="#000000" font-family="sans-serif" font-size="13" lengthAdjust="spacing" textLength="22.9785" x="257" y="386.0669">has</text></g><!--link Company to Game--><g id="link_Company_Game"><path codeLine="41" d="M355,128.11 C355,151.77 355,153.66 355,178.87 " fill="none" id="Company-Game" style="stroke:#181818;stroke-width:1;"/><line style="stroke:#181818;stroke-width:1;" x1="351" x2="359" y1="124.11" y2="124.11"/><line style="stroke:#181818;stroke-width:1;" x1="351" x2="359" y1="127.11" y2="127.11"/><line style="stroke:#181818;stroke-width:1;" x1="355" x2="355" y1="128.11" y2="120.11"/><line style="stroke:#181818;stroke-width:1;" x1="355" x2="361" y1="188.87" y2="196.87"/><line style="stroke:#181818;stroke-width:1;" x1="355" x2="349" y1="188.87" y2="196.87"/><line style="stroke:#181818;stroke-width:1;" x1="355" x2="355" y1="188.87" y2="196.87"/><ellipse cx="355" cy="182.87" fill="none" rx="4" ry="4" style="stroke:#181818;stroke-width:1;"/><text fill="#000000" font-family="sans-serif" font-size="13" lengthAdjust="spacing" textLength="33.5981" x="356" y="163.0669">owns</text></g><!--SRC=[XPB1QuCm5CRl-Ik25xinBuLUUfCsM0_Ai3fsAq4VNK0JITA9jFlVzrBNrJ7TBe7tVNbvltm9I2jiJmi3cfu9fOzKL7HDYoBUOXK4k9pGaxm1b5_2RBCBiyLojNf01nekwjzooutfb7RdvEmrHqMhshMpj4WMVh5dcVz4_N2RnAdl6aeDt49ruDQrn0dRvs7oJ3u8WG4lWtS1tL-0yKWy8kourjmAUSGwJdCMiSn9mu7VWFyIH2w0cVcuePv8fm9JQj5QeUGe2QY16pXKEEx7g5a6D5JJSjdVhtJ7sWpM7DdqivNg9Atk9upP5Ax_ut890dM-FSQQUc_SUEIQpBHre_joeu76KvqqtYS0]--></g></svg>